# xmcd CD database file
#
# Track frame offsets:
#	150
#	13245
#	27489
#	39848
#	62199
#	74702
#	88790
#	106060
#	117674
#	130939
#	144596
#	161507
#	176812
#	197907
#	212129
#	233997
#
# Disc length: 3312 seconds
#
# Revision: 0
# Processed by: cddbd v1.5.2PL0 Copyright (c) Steve Scherf et al.
# Submitted via: CDex 1.70beta2
#
DISCID=f30cee10
DTITLE=The Charles Burton Blues Band - Everybody's Talkin'
DYEAR=2008
DGENRE=Blues
TTITLE0=Fat, Dumb And Happy
TTITLE1=Black Market Woman
TTITLE2=Baby's Got It Bad
TTITLE3=Still Get Together
TTITLE4=Pop The Trunk
TTITLE5=Hook, Line And Sinker
TTITLE6=Tiki
TTITLE7=Love That GuitarHeavy 
TTITLE8=Hearted Blues
TTITLE9=Love You Baby
TTITLE10=Swamp Rat
TTITLE11=Get Back What You Give
TTITLE12=Little Jennifer
TTITLE13=Trouble Head
TTITLE14=Everybody's Talkin'
TTITLE15=(The) Old Fashioned Way
EXTD=YEAR: 2008
EXTT0=
EXTT1=
EXTT2=
EXTT3=
EXTT4=
EXTT5=
EXTT6=
EXTT7=
EXTT8=
EXTT9=
EXTT10=
EXTT11=
EXTT12=
EXTT13=
EXTT14=
EXTT15=
PLAYORDER=
